<svg width="1000" height="1000" viewBox="0 0 1000 1000" xmlns="http://www.w3.org/2000/svg">
  <defs>
    <pattern id="medical-pattern" x="0" y="0" width="100" height="100" patternUnits="userSpaceOnUse">
      <!-- Pills -->
      <rect x="15" y="40" width="30" height="15" rx="7.5" fill="#e0e7ff" opacity="0.5"/>
      <rect x="75" y="20" width="30" height="15" rx="7.5" fill="#e0e7ff" opacity="0.5"/>
      <rect x="45" y="80" width="30" height="15" rx="7.5" fill="#e0e7ff" opacity="0.5"/>
      
      <!-- Cross -->
      <path d="M17,10 H23 V4 H27 V10 H33 V14 H27 V20 H23 V14 H17 V10 Z" fill="#dbeafe" opacity="0.6"/>
      <path d="M67,70 H73 V64 H77 V70 H83 V74 H77 V80 H73 V74 H67 V70 Z" fill="#dbeafe" opacity="0.6"/>
      
      <!-- Heart Rate Line -->
      <polyline points="0,50 10,50 15,30 20,70 25,50 100,50" stroke="#bfdbfe" stroke-width="1.5" fill="none" opacity="0.4"/>
      
      <!-- Circular Icons -->
      <circle cx="85" cy="85" r="6" fill="#dbeafe" opacity="0.5"/>
      <circle cx="10" cy="85" r="4" fill="#dbeafe" opacity="0.5"/>
      
      <!-- Medical Bottle -->
      <path d="M55,10 H60 V15 Q65,15 65,20 V30 Q65,35 60,35 H50 Q45,35 45,30 V20 Q45,15 50,15 V10 Z" fill="#e0e7ff" opacity="0.6"/>
    </pattern>
  </defs>
  <rect width="100%" height="100%" fill="url(#medical-pattern)"/>
</svg>