<svg xmlns="http://www.w3.org/2000/svg" viewBox="0 0 600 600">
  <!-- Background circle -->
  <circle cx="300" cy="300" r="280" fill="#F5F7FF" opacity="0.8" />
  
  <!-- Cloud upload icon -->
  <path d="M300,130 C330,130 350,150 350,180 C380,180 400,200 400,230 C400,260 380,280 350,280 L250,280 C220,280 200,260 200,230 C200,210 210,190 230,180 C230,150 250,130 280,130 L300,130" 
        fill="#4F46E5" stroke="none" opacity="0.9" />
  <path d="M300,130 C330,130 350,150 350,180 C380,180 400,200 400,230 C400,260 380,280 350,280 L250,280 C220,280 200,260 200,230 C200,210 210,190 230,180 C230,150 250,130 280,130 L300,130" 
        fill="none" stroke="#4F46E5" stroke-width="6" />
  <path d="M300,260 L300,180 M280,200 L300,180 L320,200" stroke="#FFFFFF" stroke-width="6" stroke-linecap="round" stroke-linejoin="round" />

  <!-- Mobile/tablet with prescription -->
  <rect x="240" y="320" width="160" height="220" rx="15" ry="15" fill="#4F46E5" />
  <rect x="250" y="330" width="140" height="180" rx="5" ry="5" fill="#FFFFFF" />
  <text x="270" y="370" font-family="Arial, sans-serif" font-size="40" font-weight="bold" fill="#4F46E5">℞</text>
  <path d="M270,390 L370,390 M270,420 L370,420 M270,450 L370,450 M270,480 L330,480" stroke="#4F46E5" stroke-width="6" stroke-opacity="0.3" stroke-linecap="round" />
  <circle cx="320" cy="525" r="15" fill="#FFFFFF" />
  
  <!-- Shield security icon -->
  <path d="M320,400 C340,390 360,395 380,400 C380,440 360,470 320,490 C280,470 260,440 260,400 C280,395 300,390 320,400Z" fill="none" stroke="#4F46E5" stroke-width="4" />
  <path d="M300,410 L315,425 L340,400" stroke="#4F46E5" stroke-width="4" stroke-linecap="round" stroke-linejoin="round" />
  
  <!-- Hand icon -->
  <path d="M200,420 C180,400 170,380 180,350 C185,335 195,330 205,340 C215,330 225,335 230,350 C240,340 250,345 255,360 C265,350 275,355 280,370 L245,480 C235,505 200,500 180,480 Z" fill="#E0E7FF" stroke="#4F46E5" stroke-width="4" />
  <path d="M220,360 L220,420" stroke="#4F46E5" stroke-width="3" opacity="0.5" />
  <path d="M240,370 L240,430" stroke="#4F46E5" stroke-width="3" opacity="0.5" />
  
  <!-- Medicine bottle -->
  <path d="M470,410 L490,370 L450,360 L430,400 Z" fill="#E0E7FF" stroke="#4F46E5" stroke-width="3" />
  <path d="M430,400 C420,430 420,460 430,480 C450,490 470,490 490,480 C500,460 500,430 490,400 Z" fill="#4F46E5" opacity="0.7" stroke="#4F46E5" stroke-width="3" />
  <path d="M455,440 L465,440 M450,460 L470,460" stroke="#FFFFFF" stroke-width="3" stroke-linecap="round" />
  <ellipse cx="460" cy="370" rx="20" ry="8" fill="none" stroke="#4F46E5" stroke-width="3" />
  
  <!-- Pills -->
  <ellipse cx="460" cy="500" rx="15" ry="8" fill="#FFFFFF" stroke="#4F46E5" stroke-width="2" transform="rotate(-30,460,500)" />
  <ellipse cx="490" cy="510" rx="15" ry="8" fill="#FFFFFF" stroke="#4F46E5" stroke-width="2" transform="rotate(30,490,510)" />
</svg>